<?xml version="1.0" standalone="no"?>
<!DOCTYPE svg PUBLIC "-//W3C//DTD SVG 20010904//EN"
 "http://www.w3.org/TR/2001/REC-SVG-20010904/DTD/svg10.dtd">
<svg version="1.0" xmlns="http://www.w3.org/2000/svg"
 width="721.000000pt" height="721.000000pt" viewBox="0 0 721.000000 721.000000"
 preserveAspectRatio="xMidYMid meet">
<metadata>
Created by potrace 1.14, written by Peter Selinger 2001-2017
</metadata>
<g transform="translate(0.000000,721.000000) scale(0.100000,-0.100000)"
fill="#000000" stroke="none">
<path d="M1010 7139 c-453 -51 -819 -285 -923 -589 l-22 -65 -3 -2847 c-3
-3130 -7 -2920 58 -3052 71 -145 217 -278 405 -371 127 -63 222 -95 373 -127
l107 -23 3073 -3 3072 -2 0 2652 c0 1459 -3 3055 -7 3546 l-6 892 -3026 -1
c-1664 -1 -3060 -5 -3101 -10z m5670 -739 l0 -440 -2788 0 c-1905 0 -2807 3
-2848 11 -150 26 -293 91 -383 175 -123 113 -159 259 -98 386 51 105 189 211
342 263 132 45 29 43 2978 44 l2797 1 0 -440z m-1429 -2121 c85 -29 135 -96
145 -196 17 -163 -72 -266 -230 -266 -149 0 -226 80 -226 235 1 114 48 192
136 223 48 17 130 19 175 4z m-3291 -84 l0 -85 80 0 80 0 0 85 0 85 70 0 70 0
0 -230 0 -230 -70 0 -70 0 0 90 0 90 -80 0 -80 0 0 -90 0 -90 -70 0 -70 0 0
230 0 230 70 0 70 0 0 -85z m530 -145 l0 -230 -70 0 -70 0 0 230 0 230 70 0
70 0 0 -230z m334 93 c21 -76 40 -145 43 -153 2 -8 22 47 43 122 20 75 40 144
43 152 5 13 24 16 102 16 l95 0 0 -230 0 -230 -60 0 -60 0 0 163 c0 92 -4 156
-9 147 -5 -8 -28 -82 -52 -163 l-44 -148 -59 3 -59 3 -46 155 -46 155 -3 -157
-3 -158 -64 0 -65 0 0 230 0 230 103 0 104 0 37 -137z m638 7 c37 -69 72 -132
77 -140 7 -10 10 30 10 128 l1 142 60 0 60 0 0 -230 0 -230 -79 0 -79 0 -71
130 c-39 71 -71 134 -71 140 0 5 -3 10 -7 10 -5 0 -7 -63 -5 -140 l4 -140 -66
0 -66 0 0 230 0 231 82 -3 82 -3 68 -125z m649 -87 c39 -120 74 -224 77 -230
3 -10 -15 -13 -72 -13 -54 0 -76 4 -76 13 0 6 -5 29 -11 50 l-10 38 -72 -3
-71 -3 -11 -45 -11 -45 -73 -3 c-57 -2 -72 0 -69 10 3 7 38 111 77 231 l73
217 88 0 88 0 73 -217z m452 203 c18 -7 43 -26 57 -41 21 -23 25 -36 25 -92 0
-62 -2 -66 -37 -99 -21 -19 -38 -37 -38 -40 0 -3 23 -40 50 -83 28 -43 50 -81
50 -84 0 -4 -34 -7 -75 -7 l-74 0 -43 80 c-40 74 -45 80 -75 80 l-33 0 0 -80
0 -80 -70 0 -70 0 0 230 0 230 150 0 c105 0 160 -4 183 -14z m297 -216 l0
-230 -70 0 -70 0 0 230 0 230 70 0 70 0 0 -230z m-482 -325 c28 -9 63 -26 77
-38 l25 -22 -31 -47 -31 -47 -38 25 c-47 32 -136 43 -165 21 -30 -23 -5 -43
77 -62 83 -19 141 -46 162 -77 23 -33 21 -115 -4 -156 -37 -60 -141 -90 -250
-73 -66 11 -170 55 -170 72 0 6 14 30 30 54 l30 44 36 -24 c68 -46 194 -54
194 -11 0 22 -20 32 -100 51 -130 31 -170 64 -170 142 0 73 38 124 115 151 45
16 154 14 213 -3z m-2190 -10 c21 -9 46 -29 55 -44 34 -57 13 -138 -42 -162
l-28 -13 37 -18 c94 -47 76 -189 -28 -218 -20 -5 -108 -10 -194 -10 l-158 0 0
240 0 240 160 0 c120 0 169 -4 198 -15z m523 -215 c43 -124 78 -231 78 -237 1
-9 -20 -13 -73 -13 l-75 0 -13 48 -14 47 -75 3 -75 3 -13 -51 -13 -50 -74 0
c-41 0 -74 1 -74 3 0 3 146 443 155 465 3 9 29 12 96 10 l92 -3 78 -225z m240
66 c5 -188 11 -206 79 -206 68 0 75 18 78 206 l3 164 75 0 74 0 0 -139 c0
-220 -19 -279 -103 -323 -33 -17 -60 -22 -123 -22 -107 0 -169 28 -201 94 -21
41 -23 58 -23 217 l0 173 69 0 69 0 3 -164z m809 109 l0 -55 -75 0 -75 0 0
-185 0 -185 -75 0 -75 0 0 185 0 185 -75 0 -75 0 0 55 0 55 225 0 225 0 0 -55z
m210 -185 l0 -240 -70 0 -70 0 0 240 0 240 70 0 70 0 0 -240z m990 185 l0 -55
-75 0 -75 0 0 -185 0 -185 -75 0 -75 0 0 185 0 185 -75 0 -75 0 0 55 0 55 225
0 225 0 0 -55z m391 -175 c43 -124 78 -231 78 -237 1 -9 -20 -13 -73 -13 l-75
0 -13 48 -14 47 -75 3 -75 3 -13 -51 -13 -50 -74 0 c-41 0 -74 1 -74 3 0 3
146 443 155 465 3 9 29 12 96 10 l92 -3 78 -225z"/>
<path d="M5111 4154 c-26 -33 -35 -82 -27 -139 13 -84 77 -119 131 -72 24 20
29 33 33 85 2 34 1 73 -2 87 -17 66 -96 89 -135 39z"/>
<path d="M3923 4090 l-21 -80 44 0 c27 0 44 5 44 12 0 18 -32 132 -39 140 -4
5 -16 -28 -28 -72z"/>
<path d="M4370 4130 l0 -50 54 0 c58 0 86 16 86 49 0 32 -33 51 -88 51 l-52 0
0 -50z"/>
<path d="M1970 3585 l0 -45 54 0 c36 0 60 5 70 16 39 38 5 74 -70 74 l-54 0 0
-45z"/>
<path d="M1970 3395 l0 -45 56 0 c67 0 94 13 94 45 0 32 -27 45 -94 45 l-56 0
0 -45z"/>
<path d="M2512 3530 l-20 -80 48 0 48 0 -21 80 c-12 44 -24 80 -28 80 -3 0
-16 -36 -27 -80z"/>
<path d="M5152 3530 l-20 -80 48 0 48 0 -21 80 c-12 44 -24 80 -28 80 -3 0
-16 -36 -27 -80z"/>
</g>
</svg>
